HIERARCHY
ROOT root
{
	OFFSET	0	13.1	24.9
	CHANNELS 6  Xposition Yposition Zposition Xrotation Yrotation Zrotation
	JOINT spine_1
	{
		OFFSET	0	9.99999	0
		CHANNELS 3  Xrotation Yrotation Zrotation
		JOINT spine_2
		{
			OFFSET	0	112	-10
			CHANNELS 3  Xrotation Yrotation Zrotation
			JOINT spine_3
			{
				OFFSET	0	206.5	19.3
				CHANNELS 3  Xrotation Yrotation Zrotation
				JOINT spine_4
				{
					OFFSET	0	110.4	14.6
					CHANNELS 3  Xrotation Yrotation Zrotation
					JOINT neck_1
					{
						OFFSET	0	71.8	-50.3
						CHANNELS 3  Xrotation Yrotation Zrotation
						JOINT neck_2
						{
							OFFSET	0	86.2	-25.8
							CHANNELS 3  Xrotation Yrotation Zrotation
							JOINT head_ee
							{
								OFFSET	0	179.8	-8.7
								CHANNELS 3  Xrotation Yrotation Zrotation
								End Site
								{
									OFFSET	1	0	0
								}
							}
						}
					}
					JOINT left_clavicle
					{
						OFFSET	-43.2	22.4	-70.8
						CHANNELS 3  Xrotation Yrotation Zrotation
						JOINT left_shoulder
						{
							OFFSET	-93.9	-5.79999	48.7
							CHANNELS 3  Xrotation Yrotation Zrotation
							JOINT left_elbow
							{
								OFFSET	-291.4	-30.8	15.2
								CHANNELS 3  Xrotation Yrotation Zrotation
								JOINT left_lowarm_twist
								{
									OFFSET	-110.7	-3.89999	13.6
									CHANNELS 3  Xrotation Yrotation Zrotation
									JOINT left_hand
									{
										OFFSET	-110.7	-3.89999	13.6
										CHANNELS 3  Xrotation Yrotation Zrotation
										JOINT left_ee
										{
											OFFSET	-80.8	-5.10001	12.1
											CHANNELS 3  Xrotation Yrotation Zrotation
											End Site
											{
												OFFSET	1	0	0
											}
										}
									}
								}
							}
						}
					}
					JOINT right_clavicle
					{
						OFFSET	43.2	22.4	-70.8
						CHANNELS 3  Xrotation Yrotation Zrotation
						JOINT right_shoulder
						{
							OFFSET	93.9	-5.79999	48.7
							CHANNELS 3  Xrotation Yrotation Zrotation
							JOINT right_elbow
							{
								OFFSET	291.4	-30.8	15.2
								CHANNELS 3  Xrotation Yrotation Zrotation
								JOINT right_lowarm_twist
								{
									OFFSET	110.7	-3.89999	13.6
									CHANNELS 3  Xrotation Yrotation Zrotation
									JOINT right_hand
									{
										OFFSET	110.7	-3.89999	13.6
										CHANNELS 3  Xrotation Yrotation Zrotation
										JOINT right_ee
										{
											OFFSET	80.8	-5.10001	12.1
											CHANNELS 3  Xrotation Yrotation Zrotation
											End Site
											{
												OFFSET	1	0	0
											}
										}
									}
								}
							}
						}
					}
				}
			}
		}
	}
	JOINT left_hip
	{
		OFFSET	-82.8	-127.5	0.300001
		CHANNELS 3  Xrotation Yrotation Zrotation
		JOINT left_knee
		{
			OFFSET	-28.2	-396.7	2.2
			CHANNELS 3  Xrotation Yrotation Zrotation
			JOINT left_ankle
			{
				OFFSET	-11.7	-411.3	35.4
				CHANNELS 3  Xrotation Yrotation Zrotation
				JOINT left_toes
				{
					OFFSET	0	-60	-88.6
					CHANNELS 3  Xrotation Yrotation Zrotation
					JOINT left_foot_ee
					{
						OFFSET	-22.5	-16.5	-42.2
						CHANNELS 3  Xrotation Yrotation Zrotation
						End Site
						{
							OFFSET	1	0	0
						}
					}
				}
			}
		}
	}
	JOINT right_hip
	{
		OFFSET	82.8	-127.5	0.300001
		CHANNELS 3  Xrotation Yrotation Zrotation
		JOINT right_knee
		{
			OFFSET	28.2	-396.7	2.2
			CHANNELS 3  Xrotation Yrotation Zrotation
			JOINT right_ankle
			{
				OFFSET	11.7	-411.3	35.4
				CHANNELS 3  Xrotation Yrotation Zrotation
				JOINT right_toes
				{
					OFFSET	0	-60	-88.6
					CHANNELS 3  Xrotation Yrotation Zrotation
					JOINT right_foot_ee
					{
						OFFSET	22.5	-16.5	-42.2
						CHANNELS 3  Xrotation Yrotation Zrotation
						End Site
						{
							OFFSET	1	0	0
						}
					}
				}
			}
		}
	}
}
MOTION
Frames: 11
Frame Time: 0.02
1762.71 736.664 -481.016 164.051 -63.2398 164.132 -3.63918 0.218084 1.73736 -3.63751 0.107107 1.74771 -3.63181 -0.371841 1.71106 -3.63588 -0.0969871 1.7483 -13.8602 11.6629 8.3981 -13.8739 17.1241 11.6021 -0.0 0.0 -0.0 4.10275 22.968 8.36526 -10.1112 -18.3721 62.7177 0.264076 -7.45303 0.0171997 -75.6024 -7.26182 5.31731 2.02266 7.21481 16.3998 -0.0 0.0 -0.0 8.38974 17.0734 -16.029 19.4584 -6.34836 -75.1942 1.04039 27.265 -0.252329 80.5453 3.90157 8.64021 -0.193762 -29.0079 -10.2853 0.0 0.0 0.0 5.3668 37.0672 -17.0941 -27.8971 0.11885 4.23739 22.3061 16.712 -3.05687 -40.1605 0.0 0.0 -0.0 0.0 -0.0 18.6407 30.1315 -12.802 -21.7999 -0.269911 -3.31434 8.48338 1.35987 1.2283 -8.47748 0.0 0.0 0.0 0.0 0.0 
1771.9 734.045 -477.495 163.84 -63.4514 163.85 -3.69798 0.452593 1.8491 -3.69614 0.334033 1.87414 -3.68205 -0.189372 1.89423 -3.68704 0.112107 1.90036 -13.0241 10.689 7.17956 -13.0405 15.8569 10.0314 -0.0 0.0 -0.0 3.83963 23.8036 7.99336 -10.3785 -18.0066 62.8501 0.334613 -9.41182 0.0275449 -74.9048 -7.17271 5.31928 2.63219 3.60677 19.2815 -0.0 0.0 -0.0 8.1066 19.0512 -15.2738 18.1332 -4.7365 -75.5731 1.1869 30.4524 -0.323066 81.2763 3.98649 8.68007 0.139846 -29.1125 -12.1513 0.0 0.0 0.0 7.7441 39.7641 -18.8166 -18.0649 0.313651 2.74301 22.2154 10.1328 -3.00622 -39.3016 0.0 0.0 -0.0 0.0 -0.0 17.7189 29.5777 -12.1066 -21.7145 -0.271326 -3.30131 10.2424 2.30319 1.47784 -8.81243 0.0 0.0 0.0 0.0 0.0 
1777.43 733.855 -479.212 164.354 -63.546 164.889 -3.70351 0.524389 1.64266 -3.7021 0.418815 1.67268 -3.68721 -0.0529964 1.72349 -3.69129 0.219821 1.71024 -11.842 9.66948 6.06064 -11.8482 14.4251 8.5174 -0.0 0.0 -0.0 4.33413 24.5159 8.66234 -10.607 -17.9433 62.6131 0.284935 -8.03433 0.0200104 -75.3522 -7.22987 5.31814 2.83215 4.18586 20.9102 -0.0 0.0 -0.0 8.12312 19.928 -15.2447 18.9998 -2.10693 -74.5484 1.15053 29.6796 -0.304848 81.5656 4.02024 8.69555 0.575901 -29.1366 -14.5743 0.0 0.0 0.0 9.51716 40.7215 -19.1925 -13.6852 0.31741 2.07121 22.0506 9.55512 -2.98474 -38.8641 0.0 0.0 -0.0 0.0 -0.0 17.3741 29.9728 -12.7616 -20.7641 -0.285773 -3.15619 12.8569 2.09388 1.83535 -9.8853 0.0 0.0 0.0 0.0 0.0 
1783.7 732.254 -479.041 165.473 -64.0151 166.358 -3.52321 0.609009 1.45831 -3.52217 0.51499 1.4941 -3.50656 0.0932366 1.57759 -3.50987 0.341187 1.54308 -10.0068 10.0381 5.65729 -9.99616 15.0924 8.00727 -0.0 0.0 -0.0 4.07614 24.1631 8.31555 -11.106 -17.806 62.8636 0.304179 -8.56913 0.022789 -75.5592 -7.2563 5.31746 3.04924 2.95398 21.9951 -0.0 0.0 -0.0 7.80593 18.4289 -14.6591 19.0141 -2.3091 -75.4102 1.25986 31.9667 -0.360876 81.881 4.05712 8.71222 0.976714 -29.306 -16.8731 0.0 0.0 0.0 10.8094 42.3523 -19.7764 -9.75619 0.277111 1.46982 22.6353 9.23764 -3.05455 -38.6443 0.0 0.0 -0.0 0.0 -0.0 16.8407 29.3981 -12.731 -17.7082 -0.315878 -2.68832 11.9635 -0.393188 1.70264 -11.4005 0.0 0.0 0.0 0.0 0.0 
1791.53 734.539 -479.414 165.451 -65.6765 166.94 -3.54679 0.351713 1.22324 -3.546 0.273168 1.24314 -3.53866 -0.0727701 1.27071 -3.54089 0.128812 1.26626 -11.018 9.37745 5.80921 -11.0094 13.9035 8.09927 -0.0 0.0 -0.0 3.87248 24.8017 8.03249 -10.0342 -16.5447 64.0355 0.317113 -8.92775 0.0247563 -74.9776 -7.18201 5.31912 3.10223 2.28733 22.1207 -0.0 0.0 -0.0 7.56067 18.942 -14.0852 18.0225 -1.30858 -74.659 1.34276 33.6287 -0.405788 82.2848 4.10446 8.73328 1.08682 -29.6494 -17.5906 0.0 0.0 0.0 11.9637 43.3981 -20.769 -7.09734 0.226489 1.06499 16.8622 6.87724 -2.33451 -34.4467 0.0 0.0 -0.0 0.0 -0.0 16.1381 28.9774 -12.6571 -15.6639 -0.322072 -2.37474 12.9887 0.869133 1.84683 -14.1251 0.0 0.0 0.0 0.0 0.0 
1803.12 732.803 -480.167 165.122 -66.5381 166.407 -3.48824 0.261709 1.21167 -3.48744 0.184083 1.22586 -3.48223 -0.152687 1.23017 -3.48434 0.0434963 1.23884 -11.1584 8.54225 5.24137 -11.1555 12.7157 7.34478 -0.0 0.0 -0.0 3.7234 25.3079 7.82968 -11.2442 -16.3341 64.4729 0.412301 -11.5436 0.0416753 -74.3716 -7.10459 5.32005 2.64735 3.30359 19.2734 -0.0 0.0 -0.0 7.08914 19.1834 -13.037 14.6073 0.982641 -74.3661 1.60104 38.4153 -0.557813 82.0016 4.07125 8.71855 1.24066 -29.4156 -18.4007 0.0 0.0 0.0 12.3991 43.8144 -21.2616 -9.06393 0.265741 1.3642 16.7729 3.49509 -2.32831 -29.9755 0.0 0.0 -0.0 0.0 -0.0 14.823 28.5907 -11.9204 -15.3198 -0.322015 -2.32195 15.2886 -0.994107 2.14424 -15.6471 0.0 0.0 0.0 0.0 0.0 
1819.48 730.305 -480.879 162.582 -68.3101 164.094 -3.473 0.153577 0.97509 -3.47248 0.0912215 0.982886 -3.47014 -0.176516 0.9712 -3.47146 -0.0209261 0.986887 -10.3723 8.69038 4.45811 -10.385 13.4074 6.54721 -0.0 0.0 -0.0 3.817 24.5852 7.95885 -11.1791 -15.8479 64.8473 0.364222 -10.2278 0.032595 -73.909 -7.04546 5.32019 2.66255 3.38711 19.412 -0.0 0.0 -0.0 6.70578 18.3916 -12.263 11.4101 1.93433 -73.2622 1.76614 41.1787 -0.663518 83.3742 4.23293 8.78842 1.63131 -29.5224 -20.6739 0.0 0.0 0.0 11.7085 44.6019 -20.8939 -9.05441 0.265576 1.36275 17.6542 2.23964 -2.44537 -26.4378 0.0 0.0 -0.0 0.0 -0.0 11.1443 28.3091 -10.4896 -13.0891 -0.313952 -1.97981 19.5976 -1.15339 2.69542 -14.9835 0.0 0.0 0.0 0.0 0.0 
1828.19 729.547 -484.153 161.065 -69.3099 162.822 -3.44394 0.0977201 0.748263 -3.44363 0.0499095 0.752964 -3.44254 -0.154104 0.738715 -3.4433 -0.035507 0.753781 -9.9794 7.83962 4.26871 -9.97687 11.8775 6.10708 -0.0 0.0 -0.0 4.20587 23.8455 8.49823 -11.6134 -15.1702 65.1862 0.371332 -10.4231 0.0338693 -73.859 -7.03907 5.32018 2.49785 3.51927 18.3073 -0.0 0.0 -0.0 6.18573 18.2148 -11.1488 9.12633 3.93377 -72.6227 1.94312 43.9025 -0.783213 84.1897 4.32976 8.82808 1.83421 -29.4332 -21.8367 0.0 0.0 0.0 11.2391 44.8005 -21.1128 -9.5376 0.273659 1.43646 17.1145 -2.64037 -2.40325 -23.8684 0.0 0.0 -0.0 0.0 -0.0 9.1937 28.772 -9.56271 -11.9934 -0.305115 -1.81194 22.5646 -0.948534 3.05987 -15.4281 0.0 0.0 0.0 0.0 0.0 
1838.18 728.948 -486.637 159.462 -70.5169 161.195 -3.36674 0.0213929 0.543056 -3.36658 -0.013206 0.543317 -3.3665 -0.157918 0.520029 -3.36687 -0.0738085 0.538442 -10.4968 7.69846 3.86018 -10.511 11.9485 5.72544 -0.0 0.0 -0.0 4.23383 23.6479 8.53989 -11.6562 -14.9272 65.6415 0.422545 -11.8225 0.0437498 -72.7458 -6.89679 5.31844 2.58491 3.53743 18.9235 -0.0 0.0 -0.0 5.97684 18.5647 -10.6692 7.1212 4.90474 -71.2498 2.02537 45.0895 -0.840861 83.966 4.30314 8.81734 1.76809 -29.6032 -21.4887 0.0 0.0 0.0 11.1256 45.1306 -21.1726 -10.2149 0.283941 1.53988 17.6814 -3.746 -2.48532 -22.4634 0.0 0.0 -0.0 0.0 -0.0 7.55096 28.3951 -8.81216 -11.6052 -0.301215 -1.7525 24.7881 -1.76253 3.31825 -14.3804 0.0 0.0 0.0 0.0 0.0 
1849.28 728.162 -488.286 158.234 -71.1986 160.034 -3.27892 -0.00890068 0.458239 -3.27881 -0.0380412 0.456744 -3.27898 -0.158057 0.43021 -3.27923 -0.088131 0.449772 -10.3027 7.4917 2.23203 -10.3467 12.6272 4.07836 -0.0 0.0 -0.0 4.427 23.3208 8.81468 -12.0518 -14.545 65.0828 0.427427 -11.9551 0.0447554 -71.9062 -6.78948 5.31529 2.5167 3.32973 18.3671 -0.0 0.0 -0.0 5.63666 17.996 -9.97938 5.28748 6.92436 -71.1928 2.11844 46.3754 -0.907511 83.8884 4.29392 8.81359 1.61165 -29.4745 -20.5483 0.0 0.0 0.0 10.1262 44.8347 -20.8236 -11.3556 0.298493 1.71429 18.4635 -7.30805 -2.62241 -21.2593 0.0 0.0 -0.0 0.0 -0.0 5.62686 28.5014 -8.03844 -9.71561 -0.27648 -1.46362 25.7839 -1.73816 3.4332 -14.4514 0.0 0.0 0.0 0.0 0.0 
1857.84 726.729 -490.294 157.345 -71.4655 159.148 -3.23664 -0.0314263 0.402481 -3.23655 -0.0569733 0.399665 -3.23687 -0.160867 0.370271 -3.23704 -0.100371 0.391029 -10.065 7.33563 2.1462 -10.1039 12.3693 3.9304 -0.0 0.0 -0.0 4.56615 23.0396 9.01607 -11.585 -14.5313 65.0495 0.455209 -12.7077 0.0506888 -71.6233 -6.75333 5.31387 2.4855 3.36966 18.1643 -0.0 0.0 -0.0 5.30737 18.0138 -9.26798 3.81183 7.35972 -71.0824 2.18495 47.2587 -0.956007 84.3154 4.34474 8.83408 1.705 -29.4759 -21.0912 0.0 0.0 0.0 10.3155 45.0982 -20.7317 -12.2288 0.307284 1.84798 18.4649 -7.91216 -2.62992 -20.4098 0.0 0.0 -0.0 0.0 -0.0 4.57887 28.4724 -7.64576 -9.41445 -0.271658 -1.41766 27.7118 -1.34827 3.65257 -13.8411 0.0 0.0 0.0 0.0 0.0 
